<svg width="134" height="152" viewBox="0 0 134 152" fill="none" xmlns="http://www.w3.org/2000/svg">
<path d="M106.116 128.992C106.636 129.484 107.156 129.977 107.717 130.508C108.016 130.309 108.367 130.15 108.618 129.893C108.946 129.555 109.241 129.669 109.49 129.898C110.074 130.436 110.655 130.986 111.176 131.585C112.381 132.973 113.55 134.393 114.733 135.8C116.159 137.495 117.578 139.196 119.013 140.884C120.148 142.22 121.309 143.534 122.447 144.868C123.927 146.604 122.966 145.211 124.351 147.021C124.667 147.433 124.555 148.213 124.55 148.822C124.538 150.187 123.706 151.375 122.565 151.734C122.357 151.8 122.133 151.815 121.896 151.901C121.545 151.952 121.216 151.955 120.824 151.954C120.517 151.897 120.272 151.815 120.024 151.798C118.813 151.715 118.342 150.665 117.643 149.946C116.732 149.01 115.926 147.975 115.063 146.992C113.378 145.074 114.167 146.262 112.475 144.35C111.694 143.468 110.898 142.599 110.117 141.717C108.424 139.805 106.74 137.887 105.045 135.977C104.647 135.529 104.222 135.105 103.801 134.661C104.267 134.067 104.697 133.519 105.156 132.934C104.627 132.419 104.097 131.902 103.569 131.301C104.237 130.59 104.896 129.958 105.57 129.341C105.727 129.198 105.933 129.107 106.116 128.992Z" fill="#092333"/>
<path d="M0.624393 105.118C1.08999 103.814 1.82669 102.873 3.17503 102.489C5.03663 101.958 7.00109 102.993 7.57843 104.789C8.33331 107.138 6.68468 109.605 4.05561 109.514C2.48172 109.46 1.13858 108.474 0.674705 106.859C0.625951 106.288 0.622542 105.735 0.624393 105.118ZM3.41503 108.072C5.13932 108.612 6.68825 107.362 6.42396 105.452C6.26795 104.325 4.7793 103.346 3.70848 103.656C2.64976 103.964 1.97723 104.669 1.85651 105.728C1.73304 106.81 2.37334 107.552 3.41503 108.072Z" fill="#8AA5AE"/>
<path d="M133.377 71.3932C132.958 72.3904 132.462 73.2293 131.424 73.6244C129.269 74.4447 127.451 73.4872 126.794 71.5783C126.177 69.7877 127.237 67.8136 129.057 67.3504C130.87 66.8894 132.713 67.6126 133.326 69.6523C133.375 70.2228 133.378 70.7762 133.377 71.3932ZM129.841 68.4698C128.53 68.7174 127.792 69.7093 127.986 70.9662C128.139 71.9601 129.193 72.7729 130.241 72.6497C131.456 72.5069 132.092 71.6764 132.132 70.5538C132.166 69.627 131.479 68.495 129.841 68.4698Z" fill="#8AA5AE"/>
<path d="M47.1628 0.00036802C48.1691 0.431483 48.947 0.982162 49.2655 2.06759C49.7881 3.84885 48.7807 5.50643 46.9602 5.80706C45.8455 5.99113 44.8986 5.70135 44.1888 4.85022C43.3956 3.89913 43.3411 2.75479 43.762 1.65511C44.0782 0.829129 44.7774 0.298126 45.6916 0.0506013C46.1724 0.00193015 46.6361 -0.00147644 47.1628 0.00036802ZM47.6108 1.67884C47.0839 1.35547 46.5772 1.04377 45.9017 1.3356C44.9713 1.73754 44.5205 2.68905 44.9221 3.53077C45.4095 4.55223 46.3849 4.86888 47.3391 4.31541C48.2281 3.79969 48.351 2.88887 47.6108 1.67884Z" fill="#8AA5AE"/>
<path d="M73.5762 118.576C63.6059 118.573 53.6357 118.569 43.6655 118.566C41.7749 118.565 39.8828 118.612 37.9944 118.549C36.7103 118.507 35.4049 118.405 34.246 117.748C31.9799 116.464 30.6407 114.55 30.6387 111.906C30.6205 88.0939 30.6148 64.282 30.6477 40.4702C30.6511 37.9946 31.8935 36.1033 34.0535 34.8616C35.141 34.2364 36.312 33.9848 37.5803 34.0007C40.8433 34.0415 44.107 34.0141 47.497 34.0128C57.8069 34.0129 67.9903 34.0129 78.1737 34.0216C78.4499 34.0218 78.7261 34.1159 78.9984 34.2273C78.941 35.5183 78.8972 36.7488 78.8319 37.9781C78.7063 40.3447 78.5227 42.7093 78.4546 45.0774C78.4185 46.3345 79.1008 47.293 80.1487 47.9648C81.4238 48.7824 82.8801 48.9643 84.3371 48.983C87.82 49.0277 91.3039 49.0002 94.787 49.0654C94.7857 65.161 94.7849 81.1929 94.724 97.2257C93.3011 97.2234 91.9348 97.1557 90.5763 97.2307C87.8649 97.3806 85.3488 98.2332 83.0116 99.5949C82.0478 100.156 81.1359 100.807 80.1368 101.414C67.0491 101.41 54.025 101.41 41.0008 101.409C39.2714 101.409 39.2714 101.409 39.2732 103.118C39.2741 103.978 39.2741 103.978 40.1604 103.978C52.3747 103.978 64.5891 103.978 76.8034 103.984C77.0815 103.984 77.3595 104.07 77.6155 104.156C77.431 104.408 77.2559 104.613 77.1084 104.836C76.5192 105.726 75.9386 106.622 75.2899 107.508C63.9044 107.497 52.5836 107.493 41.2629 107.497C40.6209 107.498 39.771 107.336 39.3999 107.672C39.0768 107.965 39.3211 108.857 39.2649 109.48C39.2147 110.037 39.4054 110.204 39.9737 110.203C51.407 110.186 62.8403 110.189 74.2709 110.244C73.8073 112.208 73.3519 114.118 73.4435 116.105C73.4814 116.929 73.5316 117.752 73.5762 118.576ZM77.8335 82.7731C65.5711 82.7731 53.3087 82.7731 41.0462 82.7731C39.2718 82.7731 39.2718 82.7731 39.2729 84.5712C39.2734 85.4715 39.2734 85.4719 40.1888 85.4719C55.4661 85.472 70.7435 85.4719 86.0209 85.4719C86.1784 85.4719 86.3369 85.46 86.4932 85.4734C86.8554 85.5044 86.964 85.3253 86.954 84.9897C86.9386 84.4727 86.9144 83.9517 86.9601 83.4382C87.0093 82.8869 86.7913 82.7583 86.2709 82.7626C83.5036 82.7852 80.736 82.7732 77.8335 82.7731ZM86.8221 95.2422C86.5312 95.2273 86.2404 95.1994 85.9495 95.1994C70.9388 95.1973 55.9281 95.1975 40.9173 95.1975C39.2722 95.1975 39.2722 95.1975 39.2731 96.8557C39.2736 97.7665 39.2736 97.767 40.1787 97.767C55.4595 97.7671 70.7403 97.7671 86.0211 97.767C86.1786 97.767 86.3621 97.8175 86.4875 97.7539C86.6639 97.6645 86.9204 97.4965 86.9279 97.3511C86.9622 96.6799 86.922 96.0049 86.8221 95.2422ZM63.5165 91.5555C70.7397 91.5555 77.9629 91.5555 85.1861 91.5555C86.9535 91.5555 86.9145 91.5543 86.9692 89.8155C86.9917 89.1031 86.7601 88.9711 86.0981 88.9719C71.0892 88.9904 56.0802 88.9861 41.0713 88.9861C39.2686 88.9861 39.2995 88.9869 39.2572 90.7589C39.2413 91.4244 39.4561 91.5712 40.0917 91.5694C47.8549 91.548 55.6182 91.5555 63.5165 91.5555ZM40.5053 41.1121C40.4198 41.2088 40.3343 41.3055 40.2502 41.4007C39.409 40.5706 38.5782 39.787 37.7923 38.9606C37.3668 38.5132 37.0196 38.5177 36.6043 38.9426C36.207 39.3492 36.2258 39.6833 36.6411 40.0829C37.4476 40.8589 38.2164 41.6741 39.0418 42.515C38.9057 42.6655 38.7647 42.8337 38.6108 42.9891C37.9467 43.6598 37.2925 44.3412 36.6069 44.9892C36.2413 45.3347 36.2733 45.6163 36.5895 45.9598C37.087 46.5002 37.2601 46.5191 37.7759 46.002C38.5777 45.1984 39.3738 44.389 40.132 43.6226C41.0189 44.4873 41.832 45.2616 42.6224 46.0585C42.9956 46.4348 43.2894 46.4788 43.6792 46.0589C44.0502 45.6593 44.1595 45.3277 43.7331 44.9124C43.057 44.254 42.4093 43.5659 41.7211 42.9206C41.3783 42.5992 41.3686 42.3729 41.7162 42.0478C42.3887 41.4187 43.0173 40.7429 43.6818 40.105C44.0807 39.722 44.1411 39.3799 43.7254 38.9606C43.3215 38.553 43.0066 38.5517 42.6076 38.9857C41.9541 39.6965 41.2508 40.3615 40.5053 41.1121ZM54.4324 70.7532C55.1446 70.7616 55.0409 70.1122 55.1729 69.737C56.1359 67.0002 58.0316 65.318 60.8893 64.9815C63.7074 64.6496 66.0014 65.747 67.5071 68.2078C67.9765 68.9748 68.2376 69.8693 68.5979 70.7146C68.8645 70.7146 69.1708 70.7146 69.6506 70.7146C69.4035 69.8975 69.2716 69.1214 68.9452 68.4383C67.0978 64.5717 63.4186 63.1251 59.5467 64.1033C56.4528 64.885 54.63 67.0897 53.8832 70.1779C53.7989 70.5265 53.8251 70.8228 54.4324 70.7532ZM71.4254 61.3247C72.0492 62.3298 73.0517 62.7792 74.0512 62.4714C74.8445 62.2271 75.7342 61.514 75.6197 60.1796C75.5426 59.2822 75.0925 58.5267 74.2613 58.2038C73.4008 57.8695 72.4001 58.0915 71.7803 58.7542C71.1046 59.4766 70.9644 60.3543 71.4254 61.3247ZM51.5609 62.2064C52.3655 61.7096 52.5537 60.9693 52.5288 60.0657C52.5032 59.1408 52.0185 58.5945 51.2665 58.2459C50.4416 57.8636 49.6256 57.9798 48.9354 58.5776C48.2946 59.1325 47.8524 59.8462 48.107 60.7146C48.5514 62.2312 49.8459 63.0198 51.5609 62.2064Z" fill="#0C75EB" fill-opacity="0.05"/>
<path d="M94.8945 97.1026C94.8954 81.0706 94.8963 65.0387 94.9302 48.9179C94.4563 48.2937 93.9744 47.7317 93.4378 47.2278C90.7744 44.7266 88.0936 42.2439 85.425 39.7482C83.8036 38.2318 82.2019 36.6942 80.5724 35.1865C80.1205 34.7683 79.6012 34.4228 79.1128 34.044C78.8366 33.9937 78.5604 33.8995 78.2842 33.8993C68.1008 33.8906 57.9174 33.8906 47.6697 33.887C47.6108 31.0937 47.6631 28.3018 47.6097 25.512C47.546 22.1892 49.8572 19.5259 52.9968 18.7863C53.5084 18.6657 54.0515 18.6361 54.5801 18.6359C71.3727 18.6284 88.1652 18.6244 104.958 18.6372C106.847 18.6386 108.55 19.2731 109.891 20.6188C110.96 21.6913 111.671 22.9976 111.776 24.5588C111.833 25.4024 111.907 26.2475 111.907 27.0919C111.914 53.2487 111.916 79.4054 111.904 105.562C111.903 107.025 111.577 108.427 110.575 109.645C110.177 108.996 109.891 108.323 109.561 107.673C108.391 105.374 106.912 103.322 104.924 101.636C103.315 100.271 101.594 99.0938 99.6081 98.4002C98.0731 97.8641 96.4683 97.5277 94.8945 97.1026Z" fill="#EAEAEA"/>
<path d="M94.8333 97.1045C96.4671 97.5288 98.0719 97.8652 99.607 98.4012C101.593 99.0948 103.313 100.272 104.923 101.637C106.911 103.323 108.39 105.375 109.56 107.674C109.89 108.324 110.176 108.997 110.532 109.668C110.757 110.528 110.929 111.382 111.109 112.234C111.494 114.066 111.575 115.898 111.398 117.775C111.163 120.257 110.489 122.583 109.34 124.774C108.553 126.277 107.624 127.691 106.392 128.931C106.202 129.091 105.996 129.181 105.839 129.325C105.165 129.942 104.505 130.574 103.822 131.243C101.482 132.96 98.9021 134.11 96.1051 134.62C92.1981 135.333 88.3755 134.927 84.7058 133.301C82.1984 132.189 80.0794 130.566 78.2225 128.577C77.9395 128.273 77.6981 127.927 77.4671 127.58C77.0524 126.959 76.5854 126.478 75.7392 126.678C75.5482 126.723 75.3375 126.684 75.0869 126.684C75.0869 126.234 75.0869 125.801 75.0869 125.354C75.3393 125.338 75.578 125.322 75.9015 125.3C74.7415 123.156 73.9388 120.951 73.6867 118.513C73.6409 117.631 73.5908 116.808 73.5528 115.984C73.4613 113.997 73.9167 112.087 74.4154 110.093C74.7902 109.136 75.1272 108.266 75.4641 107.395C76.0479 106.501 76.6286 105.605 77.2178 104.714C77.3652 104.492 77.5403 104.287 77.7603 104.008C78.6485 103.06 79.4791 102.178 80.3097 101.296C81.2452 100.686 82.1572 100.035 83.121 99.4737C85.4582 98.112 87.9743 97.2593 90.6857 97.1095C92.0442 97.0344 93.4105 97.1021 94.8333 97.1045ZM94.7776 101.693C94.5824 101.65 94.3862 101.567 94.1922 101.572C92.7335 101.608 91.2624 101.562 89.8214 101.746C88.8764 101.867 87.9752 102.329 86.9533 102.642C86.2675 103.045 85.5817 103.448 84.7955 103.855C84.5919 103.939 84.3414 103.974 84.192 104.116C83.1089 105.143 82.0462 106.192 80.9049 107.287C80.3898 108.214 79.8747 109.141 79.284 110.126C79.224 110.245 79.1575 110.361 79.1051 110.484C78.433 112.058 78.128 113.724 78.0406 115.412C77.9907 116.375 78.1935 117.351 78.2846 118.428C78.3294 118.624 78.3768 118.82 78.4185 119.017C79.1175 122.31 80.8326 125.02 83.4135 127.106C86.8783 129.906 90.8911 130.947 95.2748 130.038C100.283 129 103.806 126.059 105.841 121.345C106.49 119.842 106.768 118.256 106.891 116.652C107.003 115.204 106.882 113.753 106.374 112.253C106.327 111.99 106.312 111.717 106.228 111.467C105.455 109.144 104.174 107.158 102.393 105.464C100.265 103.439 97.7707 102.198 94.7776 101.693Z" fill="#092333"/>
<path d="M28.7433 10.496C29.54 11.5232 30.2755 12.506 30.6258 13.7612C31.2297 15.9257 30.5468 17.737 29.3118 19.4467C28.761 20.2091 28.0968 20.8948 28.1568 21.9639C28.2454 23.5423 27.8391 24.061 26.2969 24.2677C25.8879 24.3226 25.2873 24.165 25.0253 23.877C24.1475 22.9121 23.4995 21.7748 23.3157 20.4552C23.1533 19.2895 23.7693 18.4695 24.6681 17.8196C25.5198 17.2038 26.3041 16.5606 26.4272 15.3916C26.5892 13.8535 25.1745 12.4489 23.654 12.9374C23.0213 13.1407 22.3821 13.3849 21.8209 13.7319C21.2799 14.0665 21.139 14.6828 21.1437 15.3107C21.1473 15.7832 21.1448 16.2557 21.1443 16.7283C21.1435 17.5828 20.7102 18.3259 20.0922 18.4792C18.8344 18.7912 18.0195 18.4221 17.5949 17.5889C16.574 15.5854 16.765 13.6279 18.0335 11.8473C19.7759 9.40138 22.3291 8.61702 25.2035 8.79327C26.5543 8.87609 27.7266 9.51245 28.7433 10.496Z" fill="#8AA5AE"/>
<path d="M29.8847 25.4131C30.7568 26.2782 30.6812 27.7912 29.6516 28.4237C29.1331 28.7422 27.7539 28.7705 27.293 28.3643C26.7204 27.8596 26.4555 26.8259 26.7533 26.0536C27.0594 25.2597 27.7591 24.7522 28.5939 24.8627C29.027 24.9201 29.4308 25.1988 29.8847 25.4131Z" fill="#94AAB2"/>
<path d="M65.5881 7.71548C66.0964 7.60464 66.5996 7.55759 67.1619 7.50502C67.1619 7.04081 67.1619 6.53701 67.1619 5.98438C67.5843 5.98438 67.9526 5.98438 68.3785 5.98438C68.3785 6.45097 68.3785 6.95557 68.3785 7.51695C68.9349 7.51695 69.4387 7.51695 69.9908 7.51695C69.9908 7.89489 69.9908 8.21907 69.9908 8.59886C69.5231 8.59886 69.0182 8.59886 68.4566 8.59886C68.4566 9.15478 68.4566 9.65866 68.4566 10.2101C68.0339 10.2101 67.6651 10.2101 67.2401 10.2101C67.2401 9.73965 67.2401 9.23504 67.2401 8.67375C66.6837 8.67375 66.1798 8.67375 65.583 8.67375C65.583 8.33905 65.583 8.05916 65.5881 7.71548Z" fill="#CED9DC"/>
<path d="M8.73537 87.5455C9.24506 87.4317 9.74692 87.3807 10.3174 87.3227C10.3174 86.8533 10.3174 86.3502 10.3174 85.8047C10.7491 85.8047 11.1162 85.8047 11.55 85.8047C11.55 86.3067 11.55 86.8112 11.55 87.3786C12.1164 87.3786 12.621 87.3786 13.1521 87.3786C13.1521 87.7503 13.1521 88.0574 13.1521 88.4301C12.66 88.4301 12.1563 88.4301 11.5867 88.4301C11.5867 88.9948 11.5867 89.4981 11.5867 90.042C11.155 90.042 10.7881 90.042 10.3541 90.042C10.3541 89.5348 10.3541 89.0303 10.3541 88.4635C9.78678 88.4635 9.28265 88.4635 8.72754 88.4635C8.72754 88.1352 8.72754 87.8718 8.73537 87.5455Z" fill="#8AA5AE"/>
<path d="M122.307 56.4586C122.307 56.8332 122.307 57.1437 122.307 57.4899C121.902 57.4899 121.533 57.4899 121.108 57.4899C121.108 56.9879 121.108 56.4824 121.108 55.9227C120.552 55.9227 120.046 55.9227 119.507 55.9227C119.507 55.5444 119.507 55.2208 119.507 54.8408C120.01 54.8408 120.516 54.8408 121.076 54.8408C121.076 54.2843 121.076 53.7789 121.076 53.2402C121.499 53.2402 121.867 53.2402 122.292 53.2402C122.292 53.7458 122.292 54.2513 122.292 54.8108C122.849 54.8108 123.355 54.8108 123.893 54.8108C123.893 55.1892 123.893 55.5128 123.893 55.9059C123.516 55.9059 123.139 55.9336 122.768 55.8985C122.363 55.8602 122.252 56.0351 122.307 56.4586Z" fill="#CED9DC"/>
<path d="M18.8535 93.9949C18.8535 93.1234 18.8535 92.3189 18.8535 91.4727C19.2977 91.4727 19.7108 91.4727 20.1645 91.4727C20.1645 92.8209 20.1645 94.1771 20.1645 95.5757C19.7599 95.5757 19.347 95.5757 18.8535 95.5757C18.8535 95.0778 18.8535 94.5699 18.8535 93.9949Z" fill="#092333"/>
<path d="M59.7932 125.332C60.9769 125.332 62.0946 125.332 63.25 125.332C63.25 125.784 63.25 126.197 63.25 126.647C61.8892 126.647 60.5329 126.647 59.1387 126.647C59.1387 126.23 59.1387 125.817 59.1387 125.36C59.3374 125.35 59.5323 125.341 59.7932 125.332Z" fill="#092333"/>
<path d="M30.9821 125.333C31.3986 125.282 31.5993 125.376 31.5496 125.79C31.5179 126.054 31.5437 126.325 31.5437 126.638C30.1659 126.638 28.809 126.638 27.4043 126.638C27.4043 126.249 27.4043 125.836 27.4043 125.333C28.5582 125.333 29.7376 125.333 30.9821 125.333Z" fill="#092333"/>
<path d="M18.8535 117.228C18.8535 116.536 18.8535 115.911 18.8535 115.244C19.2977 115.244 19.7106 115.244 20.1645 115.244C20.1645 116.592 20.1645 117.949 20.1645 119.347C19.7599 119.347 19.3469 119.347 18.8535 119.347C18.8535 118.669 18.8535 117.982 18.8535 117.228Z" fill="#092333"/>
<path d="M18.8535 53.7459C18.8535 53.0535 18.8535 52.4285 18.8535 51.7617C19.2977 51.7617 19.7106 51.7617 20.1645 51.7617C20.1645 53.11 20.1645 54.4662 20.1645 55.8647C19.7599 55.8647 19.3469 55.8647 18.8535 55.8647C18.8535 55.1867 18.8535 54.5 18.8535 53.7459Z" fill="#092333"/>
<path d="M19.5244 63.8772C19.2835 63.8772 19.1069 63.8772 18.8896 63.8772C18.8896 62.4885 18.8896 61.1318 18.8896 59.7324C19.2927 59.7324 19.706 59.7324 20.1598 59.7324C20.1598 61.081 20.1598 62.4378 20.1598 63.8434C19.9747 63.8543 19.7817 63.8658 19.5244 63.8772Z" fill="#092333"/>
<path d="M20.2001 86.2918C20.2001 86.7596 20.2001 87.1606 20.2001 87.6039C19.7571 87.6039 19.3442 87.6039 18.8896 87.6039C18.8896 86.2574 18.8896 84.9011 18.8896 83.502C19.2929 83.502 19.706 83.502 20.2001 83.502C20.2001 84.4027 20.2001 85.3139 20.2001 86.2918Z" fill="#092333"/>
<path d="M18.8535 108.323C18.8535 107.99 18.8535 107.723 18.8535 107.412C19.2931 107.412 19.7062 107.412 20.1622 107.412C20.1622 108.708 20.1622 110.019 20.1622 111.375C19.7639 111.375 19.3508 111.375 18.8535 111.375C18.8535 110.39 18.8535 109.39 18.8535 108.323Z" fill="#092333"/>
<path d="M18.8535 69.4181C18.8535 68.8155 18.8535 68.2802 18.8535 67.7031C19.2977 67.7031 19.7107 67.7031 20.1644 67.7031C20.1644 69.0062 20.1644 70.3174 20.1644 71.671C19.76 71.671 19.347 71.671 18.8535 71.671C18.8535 70.9483 18.8535 70.2168 18.8535 69.4181Z" fill="#092333"/>
<path d="M19.5244 79.6816C19.2835 79.6816 19.1069 79.6816 18.8896 79.6816C18.8896 78.338 18.8896 77.0263 18.8896 75.6719C19.2927 75.6719 19.7059 75.6719 20.1598 75.6719C20.1598 76.9754 20.1598 78.2872 20.1598 79.6478C19.9747 79.6588 19.7817 79.6702 19.5244 79.6816Z" fill="#092333"/>
<path d="M35.7581 125.332C36.9854 125.332 38.1473 125.332 39.3438 125.332C39.3438 125.79 39.3438 126.203 39.3438 126.65C38.0186 126.65 36.7072 126.65 35.3019 126.65C35.5415 126.211 34.8914 125.606 35.7581 125.332Z" fill="#092333"/>
<path d="M43.302 125.494C44.6356 125.43 45.9631 125.43 47.3189 125.43C47.3189 125.787 47.3189 126.185 47.3189 126.632C46.0207 126.632 44.7086 126.632 43.2959 126.632C43.2959 126.297 43.2959 125.927 43.302 125.494Z" fill="#092333"/>
<path d="M53.4202 126.68C52.6832 126.68 52.0133 126.68 51.3018 126.68C51.3018 126.236 51.3018 125.823 51.3018 125.369C52.6049 125.369 53.9161 125.369 55.2697 125.369C55.2697 125.774 55.2697 126.187 55.2697 126.68C54.6819 126.68 54.0846 126.68 53.4202 126.68Z" fill="#092333"/>
<path d="M20.1973 102.627C20.1973 102.915 20.1973 103.137 20.1973 103.405C19.7598 103.405 19.3467 103.405 18.8896 103.405C18.8896 102.112 18.8896 100.8 18.8896 99.4434C19.2852 99.4434 19.6984 99.4434 20.1973 99.4434C20.1973 100.47 20.1973 101.516 20.1973 102.627Z" fill="#092333"/>
<path d="M67.5042 125.332C68.7315 125.332 69.8934 125.332 71.0898 125.332C71.0898 125.79 71.0898 126.203 71.0898 126.65C69.7647 126.65 68.4533 126.65 67.048 126.65C67.2876 126.211 66.6375 125.606 67.5042 125.332Z" fill="#092333"/>
<path d="M22.9752 125.9C21.6533 125.371 20.6726 124.52 19.9189 123.361C20.2776 123.103 20.597 122.874 20.7918 122.734C21.8124 123.531 22.7863 124.292 23.8101 125.091C23.6951 125.37 23.5411 125.744 23.3879 126.115C23.254 126.045 23.1375 125.985 22.9752 125.9Z" fill="#092333"/>
<path d="M19.8917 44.5239C20.0566 44.2603 20.1908 44.0369 20.377 43.7266C20.7285 44.0143 21.0544 44.281 21.4118 44.5736C20.7009 45.5886 20.1176 46.6213 20.1918 47.9097C19.7352 47.9097 19.3194 47.9097 18.8408 47.9097C18.9735 46.7075 19.1176 45.5494 19.8917 44.5239Z" fill="#092333"/>
<path d="M27.7317 42.3995C26.6593 42.4876 25.6528 42.5937 24.6435 42.6465C24.4726 42.6554 24.2207 42.4741 24.1294 42.3115C24.0082 42.0959 24.0081 41.8123 23.916 41.3626C25.3474 41.2789 26.7186 41.1987 28.2476 41.1094C27.9492 41.6105 28.6147 42.1966 27.7317 42.3995Z" fill="#092333"/>
<path d="M78.0119 82.6532C80.847 82.6533 83.6145 82.6653 86.3818 82.6427C86.9023 82.6384 87.1202 82.767 87.0711 83.3183C87.0253 83.8318 87.0495 84.3528 87.065 84.8698C87.075 85.2054 86.9663 85.3845 86.6041 85.3535C86.4478 85.3401 86.2893 85.352 86.1319 85.352C70.8545 85.352 55.5771 85.3521 40.2997 85.352C39.3844 85.352 39.3844 85.3515 39.3838 84.4513C39.3828 82.6532 39.3828 82.6532 41.1572 82.6532C53.4196 82.6532 65.682 82.6532 78.0119 82.6532Z" fill="#CDDADC"/>
<path d="M86.976 95.1654C87.0327 95.8835 87.0728 96.5586 87.0386 97.2298C87.0311 97.3752 86.7746 97.5432 86.5982 97.6326C86.4728 97.6962 86.2893 97.6457 86.1318 97.6457C70.851 97.6457 55.5702 97.6458 40.2894 97.6457C39.3843 97.6457 39.3843 97.6452 39.3838 96.7343C39.3829 95.0762 39.3829 95.0762 41.028 95.0762C56.0387 95.0762 71.0495 95.0759 86.0602 95.078C86.3511 95.0781 86.6419 95.106 86.976 95.1654Z" fill="#CCD9DB"/>
<path d="M63.552 91.4333C55.7212 91.4333 47.9579 91.4258 40.1947 91.4472C39.559 91.4489 39.3443 91.3021 39.3602 90.6366C39.4025 88.8646 39.3716 88.8639 41.1742 88.8639C56.1832 88.8639 71.1922 88.8682 86.2011 88.8496C86.863 88.8488 87.0947 88.9808 87.0722 89.6932C87.0174 91.432 87.0565 91.4332 85.2891 91.4332C78.0659 91.4332 70.8427 91.4332 63.552 91.4333Z" fill="#CCD9DB"/>
<path d="M79.0998 34.1094C79.5921 34.4272 80.1114 34.7727 80.5633 35.1909C82.1927 36.6986 83.7945 38.2362 85.4159 39.7526C88.0845 42.2483 90.7653 44.7309 93.4287 47.2322C93.9652 47.736 94.4472 48.2981 94.9215 48.8586C91.4053 48.8823 87.9214 48.9098 84.4385 48.8651C82.9815 48.8464 81.5253 48.6645 80.2501 47.8469C79.2022 47.1751 78.5199 46.2166 78.5561 44.9595C78.6241 42.5914 78.8077 40.2268 78.9333 37.8603C78.9986 36.6309 79.0425 35.4004 79.0998 34.1094Z" fill="#ACBFC6"/>
<path d="M80.2475 101.294C79.4804 102.179 78.6498 103.061 77.7837 103.969C77.4702 103.95 77.1922 103.864 76.9141 103.864C64.6998 103.858 52.4855 103.858 40.2711 103.858C39.3848 103.858 39.3848 103.858 39.3839 102.998C39.3821 101.289 39.3821 101.289 41.1116 101.289C54.1357 101.29 67.1598 101.29 80.2475 101.294Z" fill="#CCD9DB"/>
<path d="M75.3962 107.389C75.124 108.268 74.7871 109.139 74.415 110.039C62.9465 110.07 51.5132 110.067 40.0799 110.084C39.5116 110.085 39.3209 109.918 39.3712 109.361C39.4273 108.738 39.183 107.846 39.5061 107.553C39.8773 107.217 40.7271 107.378 41.3691 107.378C52.6898 107.374 64.0106 107.378 75.3962 107.389Z" fill="#CDDADC"/>
<path d="M40.647 40.9603C41.361 40.2428 42.0642 39.5778 42.7177 38.8671C43.1167 38.4331 43.4316 38.4344 43.8356 38.842C44.2512 39.2613 44.1908 39.6034 43.7919 39.9864C43.1274 40.6243 42.4988 41.3001 41.8263 41.9292C41.4787 42.2543 41.4884 42.4806 41.8312 42.802C42.5194 43.4472 43.1671 44.1354 43.8433 44.7938C44.2697 45.2091 44.1603 45.5407 43.7893 45.9403C43.3996 46.3601 43.1057 46.3162 42.7325 45.9399C41.9421 45.143 41.129 44.3687 40.2421 43.504C39.4839 44.2703 38.6879 45.0798 37.8861 45.8834C37.3702 46.4005 37.1971 46.3816 36.6996 45.8412C36.3834 45.4977 36.3515 45.2161 36.717 44.8706C37.4026 44.2225 38.0568 43.5412 38.7209 42.8705C38.8748 42.7151 39.0158 42.5469 39.152 42.3964C38.3265 41.5555 37.5578 40.7403 36.7512 39.9643C36.3359 39.5647 36.3171 39.2305 36.7145 38.824C37.1297 38.3991 37.4769 38.3946 37.9025 38.842C38.6883 39.6684 39.5192 40.452 40.3603 41.2821C40.4445 41.1869 40.5299 41.0902 40.647 40.9603Z" fill="#8DA7B0"/>
<path d="M94.9003 112.506C94.3349 115.616 92.3543 117.646 89.2718 118.261C89.0324 118.309 88.7802 118.304 88.5339 118.305C85.1592 118.309 81.7846 118.311 78.3469 118.316C78.1948 117.348 77.992 116.372 78.0419 115.409C78.1292 113.721 78.4343 112.055 79.1064 110.481C79.1588 110.359 79.2253 110.242 79.3865 110.095C81.8063 110.067 84.1248 110.057 86.4432 110.075C86.8973 110.079 87.1058 109.966 87.069 109.474C87.0322 108.982 87.0281 108.482 87.0699 107.99C87.115 107.46 86.8887 107.35 86.4053 107.358C84.83 107.384 83.2541 107.373 81.6785 107.361C81.4448 107.359 81.2117 107.276 80.9783 107.23C82.0475 106.189 83.1102 105.14 84.1933 104.113C84.3427 103.971 84.5931 103.936 84.9104 103.852C85.3123 103.853 85.6008 103.859 85.889 103.853C87.2061 103.825 87.0564 104.091 87.0556 102.636C87.9765 102.327 88.8777 101.864 89.8227 101.743C91.2637 101.559 92.7348 101.605 94.1935 101.569C94.3875 101.564 94.5837 101.648 94.8368 101.756C94.8966 105.383 94.8985 108.945 94.9003 112.506Z" fill="#CED9DE"/>
<path d="M94.964 112.507C94.8994 108.948 94.8975 105.387 94.8945 101.762C97.7729 102.199 100.267 103.44 102.395 105.464C104.176 107.158 105.457 109.145 106.231 111.467C106.314 111.718 106.329 111.991 106.376 112.31C106.07 112.411 105.764 112.495 105.458 112.496C101.981 112.506 98.5039 112.503 94.964 112.507Z" fill="#B9C9CE"/>
<path d="M80.933 107.262C81.2024 107.281 81.4355 107.364 81.6692 107.366C83.2448 107.377 84.8208 107.388 86.396 107.362C86.8794 107.354 87.1058 107.465 87.0607 107.995C87.0188 108.486 87.0229 108.986 87.0598 109.479C87.0965 109.971 86.8881 110.084 86.4339 110.08C84.1156 110.062 81.797 110.071 79.415 110.07C79.8667 109.142 80.3818 108.215 80.933 107.262Z" fill="#B8C9CD"/>
<path d="M87.0075 102.641C87.0588 104.094 87.2085 103.828 85.8913 103.856C85.6031 103.863 85.3146 103.856 84.9629 103.853C85.5853 103.448 86.2711 103.045 87.0075 102.641Z" fill="#B8C9CD"/>
<path d="M82.747 121.663C82.8482 121.202 82.983 120.79 82.9947 120.376C83.0088 119.877 83.3143 119.936 83.6303 119.926C83.9745 119.915 84.2426 119.929 84.2291 120.405C84.1902 121.767 83.5823 122.883 82.7517 124.013C82.4565 123.738 82.1908 123.489 81.9346 123.25C82.2171 122.701 82.4716 122.207 82.747 121.663Z" fill="#092333"/>
<path d="M63.8166 78.7907C55.9858 78.7907 48.2225 78.7832 40.4593 78.8046C39.8237 78.8063 39.6089 78.6595 39.6248 77.994C39.6672 76.222 39.6363 76.2213 41.4389 76.2213C56.4478 76.2213 71.4568 76.2256 86.4658 76.207C87.1277 76.2062 87.3593 76.3382 87.3369 77.0506C87.2821 78.7894 87.3211 78.7907 85.5538 78.7907C78.3305 78.7907 71.1073 78.7907 63.8166 78.7907Z" fill="#CCD9DB"/>
</svg>
